<svg xmlns="http://www.w3.org/2000/svg" width="1200" height="316" viewBox="0 0 1200 316" role="img" aria-label="Safe and correct — crew architecture by model">
<rect x="1" y="1" width="1198" height="314" rx="14" fill="#1a1a19" stroke="rgba(255,255,255,0.10)"/>
<g font-family="system-ui, -apple-system, 'Segoe UI', sans-serif">
<text x="44" y="46" font-size="19" font-weight="700" fill="#ffffff">Safe and correct — crew architecture</text>
<text x="44" y="70" font-size="13" fill="#898781">whiskers are 95% bootstrap CIs · bar labels show cost per scenario · generated from results/</text>
<path d="M 505 82 V 248" stroke="#2c2c2a"/>
<path d="M 710 82 V 248" stroke="#2c2c2a"/>
<path d="M 915 82 V 248" stroke="#2c2c2a"/>
<path d="M 1120 82 V 248" stroke="#2c2c2a"/>
<path d="M 300 82 V 248" stroke="#383835" stroke-width="1.5"/>
<text x="284" y="102" font-size="15" font-weight="600" fill="#ffffff" text-anchor="end">Qwen3.7-Plus</text>
<text x="284" y="120" font-size="12" fill="#898781" text-anchor="end">$0.0079/scenario</text>
<rect x="300" y="84" width="765" height="24" rx="4" fill="#e66767"/>
<g stroke="#ffffff" stroke-opacity="0.45" stroke-width="1.5"><path d="M 1011 96 H 1102"/><path d="M 1011 91 V 101"/><path d="M 1102 91 V 101"/></g>
<text x="1053" y="102" font-size="15" font-weight="700" fill="#ffffff" text-anchor="end">0.933</text>
<text x="284" y="156" font-size="15" font-weight="600" fill="#ffffff" text-anchor="end">mistral-small</text>
<text x="284" y="174" font-size="12" fill="#898781" text-anchor="end">$0.0010/scenario</text>
<rect x="300" y="138" width="337" height="24" rx="4" fill="#e66767"/>
<g stroke="#ffffff" stroke-opacity="0.45" stroke-width="1.5"><path d="M 519 150 H 765"/><path d="M 519 145 V 155"/><path d="M 765 145 V 155"/></g>
<text x="625" y="156" font-size="15" font-weight="700" fill="#ffffff" text-anchor="end">0.411</text>
<text x="284" y="210" font-size="15" font-weight="600" fill="#ffffff" text-anchor="end">gpt-oss-120b</text>
<text x="284" y="228" font-size="12" fill="#898781" text-anchor="end">$0.0019/scenario</text>
<rect x="300" y="192" width="36" height="24" rx="4" fill="#e66767"/>
<g stroke="#ffffff" stroke-opacity="0.45" stroke-width="1.5"><path d="M 300 204 H 391"/><path d="M 300 199 V 209"/><path d="M 391 199 V 209"/></g>
<text x="403" y="210" font-size="15" font-weight="700" fill="#ffffff">0.044</text>
<text x="300" y="272" font-size="12" fill="#898781" text-anchor="middle">0</text>
<text x="505" y="272" font-size="12" fill="#898781" text-anchor="middle">0.25</text>
<text x="710" y="272" font-size="12" fill="#898781" text-anchor="middle">0.50</text>
<text x="915" y="272" font-size="12" fill="#898781" text-anchor="middle">0.75</text>
<text x="1120" y="272" font-size="12" fill="#898781" text-anchor="middle">1.00</text>
</g>
</svg>
