<svg xmlns="http://www.w3.org/2000/svg" width="1200" height="370" viewBox="0 0 1200 370" role="img" aria-label="Strategy accuracy by model">
<rect x="1" y="1" width="1198" height="368" rx="14" fill="#1a1a19" stroke="rgba(255,255,255,0.10)"/>
<g font-family="system-ui, -apple-system, 'Segoe UI', sans-serif">
<text x="44" y="46" font-size="19" font-weight="700" fill="#ffffff">Strategy accuracy</text>
<text x="44" y="70" font-size="13" fill="#898781">whiskers are 95% bootstrap CIs · bar labels show cost per scenario · generated from results/</text>
<path d="M 505 82 V 302" stroke="#2c2c2a"/>
<path d="M 710 82 V 302" stroke="#2c2c2a"/>
<path d="M 915 82 V 302" stroke="#2c2c2a"/>
<path d="M 1120 82 V 302" stroke="#2c2c2a"/>
<path d="M 300 82 V 302" stroke="#383835" stroke-width="1.5"/>
<text x="284" y="102" font-size="15" font-weight="600" fill="#ffffff" text-anchor="end">kimi-k2p6</text>
<text x="284" y="120" font-size="12" fill="#898781" text-anchor="end">$0.0128/scenario</text>
<rect x="300" y="84" width="674" height="24" rx="4" fill="#d95926"/>
<g stroke="#ffffff" stroke-opacity="0.45" stroke-width="1.5"><path d="M 865 96 H 1065"/><path d="M 865 91 V 101"/><path d="M 1065 91 V 101"/></g>
<text x="962" y="102" font-size="15" font-weight="700" fill="#ffffff" text-anchor="end">0.822</text>
<text x="284" y="156" font-size="15" font-weight="600" fill="#ffffff" text-anchor="end">gpt-oss-120b</text>
<text x="284" y="174" font-size="12" fill="#898781" text-anchor="end">$0.0016/scenario</text>
<rect x="300" y="138" width="547" height="24" rx="4" fill="#d95926"/>
<g stroke="#ffffff" stroke-opacity="0.45" stroke-width="1.5"><path d="M 728 150 H 965"/><path d="M 728 145 V 155"/><path d="M 965 145 V 155"/></g>
<text x="835" y="156" font-size="15" font-weight="700" fill="#ffffff" text-anchor="end">0.667</text>
<text x="284" y="210" font-size="15" font-weight="600" fill="#ffffff" text-anchor="end">mistral-small</text>
<text x="284" y="228" font-size="12" fill="#898781" text-anchor="end">$0.0004/scenario</text>
<rect x="300" y="192" width="528" height="24" rx="4" fill="#d95926"/>
<g stroke="#ffffff" stroke-opacity="0.45" stroke-width="1.5"><path d="M 710 204 H 938"/><path d="M 710 199 V 209"/><path d="M 938 199 V 209"/></g>
<text x="816" y="210" font-size="15" font-weight="700" fill="#ffffff" text-anchor="end">0.644</text>
<text x="284" y="264" font-size="15" font-weight="600" fill="#ffffff" text-anchor="end">mock (CI baseline)</text>
<text x="284" y="282" font-size="12" fill="#898781" text-anchor="end">free tier / $0</text>
<rect x="300" y="246" width="492" height="24" rx="4" fill="#383835"/>
<g stroke="#ffffff" stroke-opacity="0.45" stroke-width="1.5"><path d="M 655 258 H 929"/><path d="M 655 253 V 263"/><path d="M 929 253 V 263"/></g>
<text x="780" y="264" font-size="15" font-weight="700" fill="#ffffff" text-anchor="end">0.600</text>
<text x="300" y="326" font-size="12" fill="#898781" text-anchor="middle">0</text>
<text x="505" y="326" font-size="12" fill="#898781" text-anchor="middle">0.25</text>
<text x="710" y="326" font-size="12" fill="#898781" text-anchor="middle">0.50</text>
<text x="915" y="326" font-size="12" fill="#898781" text-anchor="middle">0.75</text>
<text x="1120" y="326" font-size="12" fill="#898781" text-anchor="middle">1.00</text>
</g>
</svg>
