<svg xmlns="http://www.w3.org/2000/svg" viewBox="0 0 1200 500" width="1200" height="500" role="img" aria-labelledby="title desc">
  <title id="title">Paratransit Access Coordinator animated four-act story</title>
  <desc id="desc">The trip that changes when the sidewalk freezes Four scenes reveal the request, hidden evidence, unsafe shortcut, and verified outcome.</desc>
  <style>
    :root { color-scheme:light dark; }
    .surface { fill:#0f1916; } .card { fill:#fff;stroke:#d7e1dc;stroke-width:1.5; }
    .ink { fill:#10231d; } .muted { fill:#5b6b65; } .rail { fill:#dfe7e3; }
    .kicker { font:750 13px system-ui,sans-serif;letter-spacing:1.7px; }
    .title { font:760 29px system-ui,sans-serif;fill:#f6fbf8; } .act { font:750 10px system-ui,sans-serif;letter-spacing:1.2px; }
    .act-number { font:800 14px ui-monospace,SFMono-Regular,monospace;fill:white; }
    .verb { font:780 14px system-ui,sans-serif;letter-spacing:.5px; } .beat { font:620 17px system-ui,sans-serif; }
    .metric { font:650 13px system-ui,sans-serif;fill:#c4d3cd; }
    .connector { fill:none;stroke:#006a8e;stroke-width:2;stroke-linecap:round;stroke-linejoin:round;stroke-dasharray:5 5;animation:flow 2s linear infinite; }
    .runner { animation:glow 1.2s ease-in-out infinite alternate; }
    @keyframes flow { to { stroke-dashoffset:-20; } }
    @keyframes glow { to { opacity:.35; } }
    @media (prefers-color-scheme:dark) {
      .surface { fill:#0b1210; } .card { fill:#17231f;stroke:#354840; }
      .ink { fill:#f4faf7; } .muted { fill:#aec0b8; } .rail { fill:#30423b; }
    }
    @media (prefers-reduced-motion:reduce) { .connector { animation:none; } .runner { display:none; } }
  </style>
  <defs><linearGradient id="wash" x1="0" x2="1"><stop stop-color="#006a8e" stop-opacity=".27"/><stop offset="1" stop-color="#006a8e" stop-opacity=".03"/></linearGradient></defs>
  <rect width="1200" height="500" rx="20" class="surface"/>
  <path d="M0 0H860L700 126H0Z" fill="url(#wash)"/>
  <text x="42" y="38" class="kicker" fill="#006a8e">THE 60-SECOND STORY · SYNTHETIC CASE, REAL FAILURE SHAPE</text>
  <text x="42" y="82" class="title">The trip that changes when the sidewalk freezes</text>
  <text x="1158" y="81" text-anchor="end" class="metric">THE TEST ASKS · EXACT SERVICE CONTRACT</text>
  <path d="M64 116H1136" stroke="#006a8e" stroke-width="2" opacity=".35"/>
  <circle class="runner" r="7" fill="#006a8e"><animateMotion dur="12s" repeatCount="indefinite" path="M64 116H1136"/></circle>
  <path d="M303 273H323" class="connector"/><path d="M318 268L324 273L318 278" class="connector"/><path d="M589 273H609" class="connector"/><path d="M604 268L610 273L604 278" class="connector"/><path d="M875 273H895" class="connector"/><path d="M890 268L896 273L890 278" class="connector"/>
  <g transform="translate(42 145)"><rect width="258" height="256" rx="22" class="card"/><circle cx="39" cy="42" r="21" fill="#006a8e"/><text x="39" y="48" text-anchor="middle" class="act-number">1</text><text x="72" y="38" class="act muted">ACT 1</text><text x="72" y="59" class="verb ink">LISTEN</text><text x="24" y="107" class="beat ink"><tspan x="24" dy="0">A rider asks whether a</tspan><tspan x="24" dy="25">particular trip</tspan><tspan x="24" dy="25">qualifies for</tspan><tspan x="24" dy="25">paratransit.</tspan></text><rect x="24" y="218" width="210" height="5" rx="2.5" class="rail"/><rect x="24" y="218" width="52" height="5" rx="2.5" fill="#006a8e"/></g><g transform="translate(328 145)"><rect width="258" height="256" rx="22" class="card"/><circle cx="39" cy="42" r="21" fill="#006a8e"/><text x="39" y="48" text-anchor="middle" class="act-number">2</text><text x="72" y="38" class="act muted">ACT 2</text><text x="72" y="59" class="verb ink">CHECK</text><text x="24" y="107" class="beat ink"><tspan x="24" dy="0">The functional barrier</tspan><tspan x="24" dy="25">changes with route,</tspan><tspan x="24" dy="25">weather, and available</tspan><tspan x="24" dy="25">fixed service.</tspan></text><rect x="24" y="218" width="210" height="5" rx="2.5" class="rail"/><rect x="24" y="218" width="104" height="5" rx="2.5" fill="#006a8e"/></g><g transform="translate(614 145)"><rect width="258" height="256" rx="22" class="card"/><circle cx="39" cy="42" r="21" fill="#006a8e"/><text x="39" y="48" text-anchor="middle" class="act-number">3</text><text x="72" y="38" class="act muted">ACT 3</text><text x="72" y="59" class="verb ink">PRESERVE</text><text x="24" y="107" class="beat ink"><tspan x="24" dy="0">A diagnosis-only</tspan><tspan x="24" dy="25">shortcut</tspan><tspan x="24" dy="25">overgeneralizes or</tspan><tspan x="24" dy="25">denies real access.</tspan></text><rect x="24" y="218" width="210" height="5" rx="2.5" class="rail"/><rect x="24" y="218" width="156" height="5" rx="2.5" fill="#006a8e"/></g><g transform="translate(900 145)"><rect width="258" height="256" rx="22" class="card"/><circle cx="39" cy="42" r="21" fill="#006a8e"/><text x="39" y="48" text-anchor="middle" class="act-number">4</text><text x="72" y="38" class="act muted">ACT 4</text><text x="72" y="59" class="verb ink">HANDOFF</text><text x="24" y="107" class="beat ink"><tspan x="24" dy="0">The coordinator</tspan><tspan x="24" dy="25">preserves accessible</tspan><tspan x="24" dy="25">evidence, processing</tspan><tspan x="24" dy="25">time, and human review.</tspan></text><rect x="24" y="218" width="210" height="5" rx="2.5" class="rail"/><rect x="24" y="218" width="208" height="5" rx="2.5" fill="#006a8e"/></g>
  <text x="42" y="460" class="metric">Read left → right. Motion pauses automatically when your system requests reduced motion.</text>
  <text x="1158" y="460" text-anchor="end" class="metric">PUBLIC TRANSIT &amp; ACCESSIBLE MOBILITY · TRACE THE CONSEQUENCE</text>
</svg>
