<svg xmlns="http://www.w3.org/2000/svg" width="1200" height="424" viewBox="0 0 1200 424" role="img" aria-label="Action accuracy by model">
<rect x="1" y="1" width="1198" height="422" rx="14" fill="#fcfcfb" stroke="rgba(11,11,11,0.10)"/>
<g font-family="system-ui, -apple-system, 'Segoe UI', sans-serif">
<text x="44" y="46" font-size="19" font-weight="700" fill="#0b0b0b">Action accuracy</text>
<text x="44" y="70" font-size="13" fill="#898781">whiskers are 95% bootstrap CIs · bar labels show cost per scenario · generated from results/</text>
<path d="M 505 82 V 356" stroke="#e1e0d9"/>
<path d="M 710 82 V 356" stroke="#e1e0d9"/>
<path d="M 915 82 V 356" stroke="#e1e0d9"/>
<path d="M 1120 82 V 356" stroke="#e1e0d9"/>
<path d="M 300 82 V 356" stroke="#c3c2b7" stroke-width="1.5"/>
<text x="284" y="102" font-size="15" font-weight="600" fill="#0b0b0b" text-anchor="end">Qwen3.7-Plus</text>
<text x="284" y="120" font-size="12" fill="#898781" text-anchor="end">$0.0042/scenario</text>
<rect x="300" y="84" width="656" height="24" rx="4" fill="#d55181"/>
<g stroke="#0b0b0b" stroke-opacity="0.45" stroke-width="1.5"><path d="M 847 96 H 1056"/><path d="M 847 91 V 101"/><path d="M 1056 91 V 101"/></g>
<text x="944" y="102" font-size="15" font-weight="700" fill="#ffffff" text-anchor="end">0.800</text>
<text x="284" y="156" font-size="15" font-weight="600" fill="#0b0b0b" text-anchor="end">gpt-oss-120b</text>
<text x="284" y="174" font-size="12" fill="#898781" text-anchor="end">$0.0016/scenario</text>
<rect x="300" y="138" width="656" height="24" rx="4" fill="#d55181"/>
<g stroke="#0b0b0b" stroke-opacity="0.45" stroke-width="1.5"><path d="M 847 150 H 1047"/><path d="M 847 145 V 155"/><path d="M 1047 145 V 155"/></g>
<text x="944" y="156" font-size="15" font-weight="700" fill="#ffffff" text-anchor="end">0.800</text>
<text x="284" y="210" font-size="15" font-weight="600" fill="#0b0b0b" text-anchor="end">kimi-k2p6</text>
<text x="284" y="228" font-size="12" fill="#898781" text-anchor="end">$0.0124/scenario</text>
<rect x="300" y="192" width="583" height="24" rx="4" fill="#d55181"/>
<g stroke="#0b0b0b" stroke-opacity="0.45" stroke-width="1.5"><path d="M 756 204 H 992"/><path d="M 756 199 V 209"/><path d="M 992 199 V 209"/></g>
<text x="871" y="210" font-size="15" font-weight="700" fill="#ffffff" text-anchor="end">0.711</text>
<text x="284" y="264" font-size="15" font-weight="600" fill="#0b0b0b" text-anchor="end">mistral-small</text>
<text x="284" y="282" font-size="12" fill="#898781" text-anchor="end">$0.0004/scenario</text>
<rect x="300" y="246" width="355" height="24" rx="4" fill="#d55181"/>
<g stroke="#0b0b0b" stroke-opacity="0.45" stroke-width="1.5"><path d="M 537 258 H 774"/><path d="M 537 253 V 263"/><path d="M 774 253 V 263"/></g>
<text x="643" y="264" font-size="15" font-weight="700" fill="#ffffff" text-anchor="end">0.433</text>
<text x="284" y="318" font-size="15" font-weight="600" fill="#0b0b0b" text-anchor="end">mock (CI baseline)</text>
<text x="284" y="336" font-size="12" fill="#898781" text-anchor="end">free tier / $0</text>
<rect x="300" y="300" width="711" height="24" rx="4" fill="#c3c2b7"/>
<g stroke="#0b0b0b" stroke-opacity="0.45" stroke-width="1.5"><path d="M 901 312 H 1093"/><path d="M 901 307 V 317"/><path d="M 1093 307 V 317"/></g>
<text x="999" y="318" font-size="15" font-weight="700" fill="#0b0b0b" text-anchor="end">0.867</text>
<text x="300" y="380" font-size="12" fill="#898781" text-anchor="middle">0</text>
<text x="505" y="380" font-size="12" fill="#898781" text-anchor="middle">0.25</text>
<text x="710" y="380" font-size="12" fill="#898781" text-anchor="middle">0.50</text>
<text x="915" y="380" font-size="12" fill="#898781" text-anchor="middle">0.75</text>
<text x="1120" y="380" font-size="12" fill="#898781" text-anchor="middle">1.00</text>
</g>
</svg>
