<svg xmlns="http://www.w3.org/2000/svg" width="1200" height="424" viewBox="0 0 1200 424" role="img" aria-label="Action accuracy by model">
<rect x="1" y="1" width="1198" height="422" rx="14" fill="#1a1a19" stroke="rgba(255,255,255,0.10)"/>
<g font-family="system-ui, -apple-system, 'Segoe UI', sans-serif">
<text x="44" y="46" font-size="19" font-weight="700" fill="#ffffff">Action accuracy</text>
<text x="44" y="70" font-size="13" fill="#898781">whiskers are 95% bootstrap CIs · bar labels show cost per scenario · generated from results/</text>
<path d="M 505 82 V 356" stroke="#2c2c2a"/>
<path d="M 710 82 V 356" stroke="#2c2c2a"/>
<path d="M 915 82 V 356" stroke="#2c2c2a"/>
<path d="M 1120 82 V 356" stroke="#2c2c2a"/>
<path d="M 300 82 V 356" stroke="#383835" stroke-width="1.5"/>
<text x="284" y="102" font-size="15" font-weight="600" fill="#ffffff" text-anchor="end">kimi-k2p6</text>
<text x="284" y="120" font-size="12" fill="#898781" text-anchor="end">$0.0051/scenario</text>
<rect x="300" y="84" width="820" height="24" rx="4" fill="#3987e5"/>
<text x="1108" y="102" font-size="15" font-weight="700" fill="#ffffff" text-anchor="end">1.000</text>
<text x="284" y="156" font-size="15" font-weight="600" fill="#ffffff" text-anchor="end">gpt-oss-120b</text>
<text x="284" y="174" font-size="12" fill="#898781" text-anchor="end">$0.0007/scenario</text>
<rect x="300" y="138" width="638" height="24" rx="4" fill="#3987e5"/>
<g stroke="#ffffff" stroke-opacity="0.45" stroke-width="1.5"><path d="M 838 150 H 1029"/><path d="M 838 145 V 155"/><path d="M 1029 145 V 155"/></g>
<text x="926" y="156" font-size="15" font-weight="700" fill="#ffffff" text-anchor="end">0.778</text>
<text x="284" y="210" font-size="15" font-weight="600" fill="#ffffff" text-anchor="end">mistral-small</text>
<text x="284" y="228" font-size="12" fill="#898781" text-anchor="end">$0.0004/scenario</text>
<rect x="300" y="192" width="574" height="24" rx="4" fill="#3987e5"/>
<g stroke="#ffffff" stroke-opacity="0.45" stroke-width="1.5"><path d="M 737 204 H 992"/><path d="M 737 199 V 209"/><path d="M 992 199 V 209"/></g>
<text x="862" y="210" font-size="15" font-weight="700" fill="#ffffff" text-anchor="end">0.700</text>
<text x="284" y="264" font-size="15" font-weight="600" fill="#ffffff" text-anchor="end">Llama-3.3-70B</text>
<text x="284" y="282" font-size="12" fill="#898781" text-anchor="end">$0.0012/scenario</text>
<rect x="300" y="246" width="137" height="24" rx="4" fill="#3987e5"/>
<g stroke="#ffffff" stroke-opacity="0.45" stroke-width="1.5"><path d="M 346 258 H 537"/><path d="M 346 253 V 263"/><path d="M 537 253 V 263"/></g>
<text x="425" y="264" font-size="15" font-weight="700" fill="#ffffff" text-anchor="end">0.167</text>
<text x="284" y="318" font-size="15" font-weight="600" fill="#ffffff" text-anchor="end">mock (CI baseline)</text>
<text x="284" y="336" font-size="12" fill="#898781" text-anchor="end">free tier / $0</text>
<rect x="300" y="300" width="793" height="24" rx="4" fill="#383835"/>
<g stroke="#ffffff" stroke-opacity="0.45" stroke-width="1.5"><path d="M 1038 312 H 1120"/><path d="M 1038 307 V 317"/><path d="M 1120 307 V 317"/></g>
<text x="1081" y="318" font-size="15" font-weight="700" fill="#ffffff" text-anchor="end">0.967</text>
<text x="300" y="380" font-size="12" fill="#898781" text-anchor="middle">0</text>
<text x="505" y="380" font-size="12" fill="#898781" text-anchor="middle">0.25</text>
<text x="710" y="380" font-size="12" fill="#898781" text-anchor="middle">0.50</text>
<text x="915" y="380" font-size="12" fill="#898781" text-anchor="middle">0.75</text>
<text x="1120" y="380" font-size="12" fill="#898781" text-anchor="middle">1.00</text>
</g>
</svg>
