<svg xmlns="http://www.w3.org/2000/svg" width="1280" height="250" viewBox="0 0 1280 250" role="img" aria-label="Awesome Agentic Use Cases — agentic AI use cases that are verified, not just runnable">
  <rect x="1" y="1" width="1278" height="248" rx="14" fill="#1a1a19" stroke="rgba(255,255,255,0.10)"/>
  <g font-family="system-ui, -apple-system, 'Segoe UI', sans-serif">
    <text x="64" y="92" font-size="46" font-weight="700" fill="#ffffff">Awesome <tspan fill="#3987e5">Agentic</tspan> Use Cases</text>
    <text x="64" y="132" font-size="20" fill="#c3c2b7">Agentic AI use cases that are verified, not just runnable.</text>
    <g font-size="15" fill="#c3c2b7">
      <rect x="64" y="160" width="212" height="34" rx="17" fill="none" stroke="#2c2c2a"/>
      <text x="84" y="182"><tspan fill="#0ca30c" font-weight="700">✓</tspan>  evals with ground truth</text>
      <rect x="292" y="160" width="212" height="34" rx="17" fill="none" stroke="#2c2c2a"/>
      <text x="312" y="182"><tspan fill="#0ca30c" font-weight="700">✓</tspan>  cost per run in dollars</text>
      <rect x="520" y="160" width="224" height="34" rx="17" fill="none" stroke="#2c2c2a"/>
      <text x="540" y="182"><tspan fill="#0ca30c" font-weight="700">✓</tspan>  observed failure modes</text>
    </g>
    <g stroke="#383835" stroke-width="1.5" fill="none">
      <path d="M 950 125 H 1000"/>
      <path d="M 1052 105 C 1080 85, 1100 78, 1128 72"/>
      <path d="M 1052 125 H 1128"/>
      <path d="M 1052 145 C 1080 165, 1100 172, 1128 178"/>
      <path d="M 1176 72 C 1204 84, 1216 100, 1222 118"/>
      <path d="M 1176 125 H 1216"/>
      <path d="M 1176 178 C 1204 166, 1216 150, 1222 132"/>
    </g>
    <rect x="906" y="103" width="44" height="44" rx="8" fill="none" stroke="#898781" stroke-width="1.5"/>
    <g stroke="#898781" stroke-width="1.5">
      <path d="M 916 117 H 940"/><path d="M 916 125 H 940"/><path d="M 916 133 H 932"/>
    </g>
    <circle cx="1026" cy="125" r="26" fill="#3987e5"/>
    <text x="1026" y="131" font-size="16" font-weight="700" fill="#ffffff" text-anchor="middle">AI</text>
    <circle cx="1152" cy="72" r="24" fill="none" stroke="#3987e5" stroke-width="1.5"/>
    <text x="1152" y="77" font-size="13" fill="#c3c2b7" text-anchor="middle">🔍</text>
    <circle cx="1152" cy="125" r="24" fill="none" stroke="#3987e5" stroke-width="1.5"/>
    <text x="1152" y="130" font-size="13" fill="#c3c2b7" text-anchor="middle">🚚</text>
    <circle cx="1152" cy="178" r="24" fill="none" stroke="#3987e5" stroke-width="1.5"/>
    <text x="1152" y="183" font-size="13" fill="#c3c2b7" text-anchor="middle">📋</text>
    <circle cx="1236" cy="125" r="16" fill="#0ca30c"/>
    <path d="M 1229 125 L 1234 130 L 1243 119" stroke="#ffffff" stroke-width="2.5" fill="none" stroke-linecap="round" stroke-linejoin="round"/>
  </g>
</svg>
